<svg xmlns="http://www.w3.org/2000/svg" version="1.1" xmlns:xlink="http://www.w3.org/1999/xlink" xmlns:svgjs="http://svgjs.dev/svgjs" width="1440" height="560" preserveAspectRatio="none" viewBox="0 0 1440 560"><g mask="url(&quot;#SvgjsMask1018&quot;)" fill="none"><path d="M140 102.39C118.33 102.39 112.32 116.78 107.69 140C94.63 205.58 92.94 214.82 104.62 280C109.09 304.94 121.54 320.25 140 320.25C159.87 320.25 164.87 303.48 181.28 280C227.87 213.36 277.44 189.24 266 140C256.8 100.43 197.48 102.39 140 102.39" stroke="rgba(0, 0, 0, 0.28)" stroke-width="2"></path><path d="M260.35 0C294.36 27.21 269.82 112 280 112C290.21 112 266.87 27.41 301.13 0C336.87 -28.59 360.57 0 420 0C479.43 0 504.92 -30.18 538.87 0C574.92 32.04 548.66 124.44 560 124.44C571.4 124.44 547.74 32.54 584.35 0C617.74 -29.68 642.17 0 700 0C770 0 770 0 840 0C895.68 0 902.08 -13.04 951.36 0C972.08 5.49 964.45 19.58 980 37.06C1026.71 89.58 1025.84 90.82 1075.89 140C1095.84 159.6 1093.89 166.68 1120 174.62C1185.95 194.68 1189.89 186.11 1260 196C1329.89 205.86 1346.27 232.06 1400 214.12C1430.12 204.06 1427.69 174.65 1427.69 140C1427.69 121.23 1419.66 111.18 1400 107.27C1335.81 94.51 1321.18 131.16 1260 106.67C1187.18 77.52 1132 30.16 1132 0C1132 -23.17 1196 0 1260 0C1330 0 1330 0 1400 0C1470 0 1505 -35 1540 0C1575 35 1540 70 1540 140C1540 210 1540 210 1540 280C1540 350 1540 350 1540 420C1540 490 1575 525 1540 560C1505 595 1470 560 1400 560C1389.23 560 1388.88 562.49 1378.46 560C1318.88 545.75 1316.05 526.52 1260 526.52C1234.82 526.52 1241.58 553.88 1216 560C1171.58 570.62 1168 560 1120 560C1050 560 1050 560 980 560C936.6 560 933.04 570.97 893.2 560C863.04 551.7 865 521.45 840 521.45C819.4 521.45 826.27 553.32 802 560C756.27 572.59 751 560 700 560C630 560 630 560 560 560C490 560 490 560 420 560C366.89 560 360.49 573.62 313.79 560C290.49 553.2 300.85 519.17 280 519.17C246.27 519.17 244.53 548.36 204.62 560C174.53 568.77 172.31 560 140 560C70 560 41.24 588.76 0 560C-28.76 539.94 -12.59 506.16 0 462.37C7.54 436.16 40.25 440.28 40.25 420C40.25 401.4 6.82 408.33 0 384.62C-13.31 338.33 0 332.31 0 280C0 210 0 210 0 140C0 70 -35 35 0 0C35 -35 70 0 140 0C200.18 0 224.36 -28.79 260.35 0" stroke="rgba(0, 0, 0, 0.28)" stroke-width="2"></path><path d="M700 115.65C640.61 115.65 576.7 106.44 575.56 140C573.9 188.61 634.39 210.66 694.4 280C696.61 282.55 697.22 283.78 700 283.78C702.71 283.78 704.67 283.17 705.38 280C720.67 211.28 734.1 204.09 732 140C731.41 121.92 718.83 115.65 700 115.65" stroke="rgba(0, 0, 0, 0.28)" stroke-width="2"></path><path d="M420 244.41C402.43 244.41 390 258.89 390 280C390 331.95 399.78 390.53 420 390.53C441.71 390.53 473.85 327.91 473.85 280C473.85 254.85 444.36 244.41 420 244.41" stroke="rgba(0, 0, 0, 0.28)" stroke-width="2"></path><path d="M980 240C952.31 240 922.99 249.39 917.78 280C907.68 339.39 926.69 353.06 949.38 420C957.8 444.84 963.99 463.56 980 463.56C996.8 463.56 1010.56 446.18 1015 420C1026.12 354.4 1023.96 346.09 1011.11 280C1006.46 256.09 998.97 240 980 240" stroke="rgba(0, 0, 0, 0.28)" stroke-width="2"></path><path d="M140 50.15C98.83 92.49 79.74 87.34 62.82 140C42.82 202.26 84.98 218.21 66.15 280C53.57 321.28 19.37 346.15 0 346.15C-13.7 346.15 0 313.08 0 280C0 210 0 210 0 140C0 70 -35 35 0 0C35 -35 70 0 140 0C169.48 0 198.95 -10.84 198.95 0C198.95 14.23 166.9 22.49 140 50.15" stroke="rgba(0, 0, 0, 0.28)" stroke-width="2"></path><path d="M356.67 140C339.67 80.44 344.16 50.86 367.17 0C375.83 -19.14 393.59 0 420 0C446.41 0 464.37 -19.15 472.83 0C495.3 50.85 498.95 80.13 481.86 140C472.54 172.67 451.06 185.08 420 185.08C388.46 185.08 366.08 172.98 356.67 140" stroke="rgba(0, 0, 0, 0.28)" stroke-width="2"></path><path d="M700 39.57C678.36 21.91 660.43 11.59 660.43 0C660.43 -8.2 680.21 0 700 0C770 0 770 0 840 0C875.8 0 884.28 -17.27 911.59 0C954.28 26.99 944.28 45.55 980 88.53C1002.46 115.55 1027.95 114.44 1027.95 140C1027.95 165.17 1007.62 169.43 980 190C913.64 239.43 880.16 293.57 840 280C806.16 268.57 864.07 195.07 832 140C794.07 74.86 764.14 91.91 700 39.57" stroke="rgba(0, 0, 0, 0.28)" stroke-width="2"></path><path d="M1260 23.33C1243.15 17.13 1232 6.6 1232 0C1232 -5.07 1246 0 1260 0C1330 0 1330 0 1400 0C1470 0 1505 -35 1540 0C1575 35 1540 70 1540 140C1540 210 1540 210 1540 280C1540 350 1540 350 1540 420C1540 490 1553.24 503.24 1540 560C1536.91 573.24 1520.05 569.14 1507.33 560C1450.05 518.83 1463.3 487.42 1400 459.38C1339.64 432.64 1322.67 429.65 1260 450.43C1182.67 476.07 1170.63 560.66 1120 552.22C1079.38 545.45 1094.76 487.14 1077.5 420C1059.76 351.03 1037.37 341.73 1050 280C1058.62 237.86 1081 212.26 1120 212.26C1173.28 212.26 1189.67 235.84 1234.55 280C1259.67 304.71 1231.27 337.85 1260 350C1314 372.85 1335.57 368.41 1400 350C1458.07 333.41 1489.63 328.81 1505 280C1522.7 223.81 1496.94 203.99 1466.15 140C1444.44 94.9 1442.63 85.95 1400 61.82C1339.56 27.61 1327.15 48.04 1260 23.33" stroke="rgba(0, 0, 0, 0.28)" stroke-width="2"></path><path d="M226.15 280C257.18 243.82 252.06 200.75 280 200.75C308.99 200.75 340 238.11 340 280C340 333 313.25 337.63 280 390.53C269.25 407.63 267.55 406.97 252 420C197.55 465.62 188.5 507.84 140 507.84C104.5 507.84 84 460.86 84 420C84 388.94 111.79 391.79 140 364C182.86 321.79 187.18 325.44 226.15 280" stroke="rgba(0, 0, 0, 0.28)" stroke-width="2"></path><path d="M481.25 420C481.25 353.68 507.33 295.02 560 285C616.71 274.21 630.58 379.62 700 378.38C770.58 377.12 788.18 268.92 840 280C885.52 289.73 894.69 356.27 894.69 420C894.69 451.63 866.61 444.61 840 470.72C795.27 514.61 801.48 528.45 752 560C731.48 573.09 726 560 700 560C641.29 560 637.8 568.63 582.58 560C567.8 557.69 569.18 550.82 560 538.13C518.52 480.82 481.25 480.24 481.25 420" stroke="rgba(0, 0, 0, 0.28)" stroke-width="2"></path><path d="M0 508.42C27.33 508.42 83.4 546.06 83.4 560C83.4 571.85 25.77 575.93 0 560C-15.93 550.14 -14.37 508.42 0 508.42" stroke="rgba(0, 0, 0, 0.28)" stroke-width="2"></path><path d="M963.2 560C963.2 554.41 968.28 541.33 980 541.33C1036.68 541.33 1100 555.3 1100 560C1100 564.64 1040 560 980 560C971.6 560 963.2 563.74 963.2 560" stroke="rgba(0, 0, 0, 0.28)" stroke-width="2"></path><path d="M0 79.13C4.58 79.13 13.64 108.73 17.95 140C27.48 209.16 34.71 214.45 27.69 280C25.73 298.29 8.11 307.69 0 307.69C-5.73 307.69 0 293.85 0 280C0 210 0 210 0 140C0 109.56 -4.39 79.13 0 79.13" stroke="rgba(0, 0, 0, 0.28)" stroke-width="2"></path><path d="M840 65.12C804.16 65.12 752.5 18.07 752.5 0C752.5 -14.49 796.25 0 840 0C855.91 0 871.82 -9.93 871.82 0C871.82 22.63 863.82 65.12 840 65.12" stroke="rgba(0, 0, 0, 0.28)" stroke-width="2"></path><path d="M1400 16.36C1376.12 16.36 1353.33 4.21 1353.33 0C1353.33 -3.97 1376.66 0 1400 0C1439.38 0 1478.75 -4.05 1478.75 0C1478.75 4.13 1438.83 16.36 1400 16.36" stroke="rgba(0, 0, 0, 0.28)" stroke-width="2"></path><path d="M1504.62 140C1504.62 87.58 1530.93 32.67 1540 32.67C1548.62 32.67 1540 86.34 1540 140C1540 175.78 1548.36 211.56 1540 211.56C1530.67 211.56 1504.62 177.03 1504.62 140" stroke="rgba(0, 0, 0, 0.28)" stroke-width="2"></path><path d="M271.03 280C271.03 273.07 275.35 266.79 280 266.79C284.83 266.79 290 273.02 290 280C290 288.83 284.8 298.42 280 298.42C275.31 298.42 271.03 288.89 271.03 280" stroke="rgba(0, 0, 0, 0.28)" stroke-width="2"></path><path d="M1088.89 280C1088.89 260.97 1102.67 249.89 1120 249.89C1143.68 249.89 1170.91 257.55 1170.91 280C1170.91 322.6 1141.21 380 1120 380C1100.2 380 1088.89 326.03 1088.89 280" stroke="rgba(0, 0, 0, 0.28)" stroke-width="2"></path><path d="M127.75 420C127.75 413.2 132.88 407.75 140 407.75C151.26 407.75 164.5 412.64 164.5 420C164.5 428.37 150.61 439.22 140 439.22C132.23 439.22 127.75 428.94 127.75 420" stroke="rgba(0, 0, 0, 0.28)" stroke-width="2"></path><path d="M554.17 420C554.17 415.09 555.74 410 560 410C567.41 410 577.5 415.24 577.5 420C577.5 424.62 567.59 428.75 560 428.75C555.92 428.75 554.17 424.46 554.17 420" stroke="rgba(0, 0, 0, 0.28)" stroke-width="2"></path><path d="M1506.67 420C1506.67 406.38 1529.67 394.07 1540 394.07C1546.34 394.07 1540 407.03 1540 420C1540 435.22 1546.71 450.43 1540 450.43C1530.05 450.43 1506.67 434.56 1506.67 420" stroke="rgba(0, 0, 0, 0.28)" stroke-width="2"></path><path d="M0 554.47C2.93 554.47 8.94 558.51 8.94 560C8.94 561.27 2.76 561.71 0 560C-1.71 558.94 -1.54 554.47 0 554.47" stroke="rgba(0, 0, 0, 0.28)" stroke-width="2"></path><path d="M695.48 560C695.48 556.75 698.3 550.67 700 550.67C701.56 550.67 702 556.14 702 560C702 560.81 701 560 700 560C697.74 560 695.48 561.42 695.48 560" stroke="rgba(0, 0, 0, 0.28)" stroke-width="2"></path></g><defs><mask id="SvgjsMask1018"><rect width="1440" height="560" fill="#ffffff"></rect></mask></defs></svg>